<svg width="248" height="55" fill="none" xmlns="http://www.w3.org/2000/svg"><path d="M65.226.34c-3.938 1.648-8.267 6.3-9.634 12.142-1.732 7.4 5.473 10.531 6.065 9.506.695-1.206-1.291-1.613-1.7-5.453-.529-4.96 1.778-10.502 4.682-12.934.54-.452.514.177.514 1.34 0 2.08-.115 20.752-.115 24.648 0 5.273-.218 6.938-.61 8.583-.395 1.667-1.033 2.794-.55 3.228.54.485 2.844-.67 4.178-2.53 1.6-2.232 2.16-4.912 2.26-7.822.122-3.51.117-9.077.122-12.253.005-2.912.05-11.44-.051-16.568C70.362.97 66.873-.35 65.226.34zm139.828 24.676c-.127 2.74-.735 4.883-1.488 6.395-1.459 2.926-4.486 3.834-5.771-.372-.701-2.293-.733-6.121-.23-9.32.512-3.26 1.944-5.721 4.314-5.5 2.338.22 3.432 3.23 3.175 8.797zm-39.411 17.007c-.031 4.554-.749 8.547-2.287 9.707-2.181 1.645-5.114.411-4.507-2.912.538-2.941 3.079-5.945 6.801-9.615 0 0 .007.837-.007 2.82zm-.595-17.034c-.134 2.497-.781 5.005-1.488 6.422-1.459 2.926-4.508 3.84-5.771-.372-.864-2.878-.657-6.602-.23-8.949.555-3.045 1.9-5.87 4.314-5.87 2.348 0 3.506 2.574 3.175 8.769zm-22.83-.038c-.144 2.644-.66 4.854-1.488 6.46-1.499 2.906-4.464 3.827-5.771-.372-.943-3.027-.622-7.155-.23-9.386.582-3.309 2.039-5.655 4.314-5.433 2.337.228 3.473 3.23 3.175 8.731zm104.624 3.088c-.571 0-.832.589-1.048 1.579-.747 3.445-1.534 4.222-2.548 4.222-1.132 0-2.15-1.705-2.412-5.12-.206-2.683-.173-7.625.09-12.541.054-1.01-.225-2.01-2.935-2.993-1.167-.424-2.862-1.047-3.707.99-2.385 5.753-3.318 10.321-3.538 12.176-.011.096-.129.116-.149-.108-.141-1.486-.453-4.188-.492-9.861-.008-1.108-.242-2.05-1.465-2.821-.794-.501-3.203-1.387-4.07-.333-.752.861-1.623 3.18-2.527 5.928-.735 2.234-1.247 3.744-1.247 3.744s.01-6.026.019-8.312c.003-.863-.588-1.15-.767-1.202-.803-.233-2.386-.622-3.058-.622-.829 0-1.032.462-1.032 1.138 0 .088-.131 7.934-.131 13.42l.001.776c-.458 2.521-1.945 5.944-3.562 5.944-1.62 0-2.383-1.43-2.383-7.971 0-3.816.114-5.476.17-8.235.033-1.59.097-2.81.093-3.088-.012-.85-1.482-1.277-2.166-1.436-.687-.159-1.284-.221-1.75-.194-.66.037-1.128.47-1.128 1.065 0 .319.004.926.004.926-.85-1.335-2.217-2.264-3.127-2.534-2.45-.727-5.006-.083-6.935 2.614-1.532 2.143-2.456 4.57-2.82 8.056-.266 2.55-.179 5.134.294 7.32-.572 2.467-1.631 3.477-2.792 3.477-1.685 0-2.906-2.748-2.764-7.501.093-3.126.719-5.32 1.403-8.495.292-1.353.055-2.06-.539-2.74-.546-.622-1.708-.94-3.378-.55-1.19.28-2.891.58-4.447.81 0 0 .094-.375.171-1.035.405-3.462-3.36-3.18-4.561-2.075-.717.66-1.205 1.439-1.39 2.839-.294 2.221 1.519 3.27 1.519 3.27-.594 2.72-2.053 6.276-3.558 8.846-.807 1.377-1.423 2.397-2.22 3.482-.026-4.353.003-8.705.085-13.057.033-1.59.097-2.778.093-3.055-.009-.621-.372-.856-1.127-1.153a8.019 8.019 0 00-2.276-.508c-1.034-.08-1.656.467-1.64 1.115.003.122.003.874.003.874-.85-1.335-2.217-2.264-3.127-2.534-2.45-.727-5.006-.083-6.935 2.614-1.532 2.143-2.536 5.15-2.82 8.03-.265 2.684-.216 4.965.145 6.887-.389 1.924-1.51 3.937-2.776 3.937-1.619 0-2.541-1.432-2.541-7.972 0-3.816.115-5.476.172-8.235.032-1.59.095-2.81.092-3.088-.012-.85-1.482-1.277-2.166-1.436-.716-.165-1.333-.226-1.808-.19-.626.046-1.066.606-1.066 1.024v.963c-.85-1.335-2.217-2.264-3.127-2.534-2.45-.727-4.992-.072-6.935 2.614-1.267 1.752-2.292 3.693-2.82 7.991a26.781 26.781 0 00-.211 3.493c-.505 3.087-2.737 6.646-4.562 6.646-1.067 0-2.085-2.07-2.085-6.482 0-5.877.364-14.245.426-15.05 0 0 2.306-.04 2.752-.045 1.151-.013 2.192.015 3.725-.064.768-.039 1.508-2.795.715-3.136-.36-.155-2.9-.29-3.907-.311-.847-.019-3.204-.194-3.204-.194s.211-5.554.261-6.14c.041-.49-.592-.741-.955-.894-.883-.373-1.672-.552-2.608-.744-1.294-.267-1.881-.006-1.995 1.084-.173 1.656-.262 6.506-.262 6.506-.949 0-4.192-.186-5.141-.186-.882 0-1.834 3.791-.614 3.838 1.403.054 3.848.102 5.469.15 0 0-.073 8.505-.073 11.132 0 .279.002.548.003.81-.892 4.646-4.034 7.156-4.034 7.156.675-3.074-.704-5.383-3.187-7.337-.915-.72-2.721-2.084-4.741-3.578 0 0 1.17-1.152 2.208-3.471.735-1.644.767-3.523-1.038-3.938-2.983-.685-5.441 1.504-6.175 3.84-.569 1.811-.265 3.154.848 4.55.081.102.17.206.26.31-.673 1.297-1.598 3.043-2.381 4.397-2.174 3.76-3.817 6.733-5.058 6.733-.992 0-.979-3.019-.979-5.846 0-2.436.18-6.1.324-9.892.048-1.254-.58-1.969-1.632-2.616-.64-.393-2.004-1.166-2.794-1.166-1.182 0-4.595.16-7.818 9.48a204.073 204.073 0 01-1.205 3.315l.069-11.207c0-.263-.14-.517-.461-.69-.543-.296-1.994-.899-3.284-.899-.615 0-.922.286-.922.856l-.113 17.534c0 1.333.035 2.887.167 3.566.131.68.344 1.234.607 1.564.264.329.568.58 1.07.683.467.096 3.024.424 3.157-.552.16-1.17.166-2.437 1.508-7.158 2.091-7.352 4.816-10.938 6.098-12.212.224-.222.48-.236.467.129-.054 1.611-.246 5.639-.376 9.06-.347 9.156 1.32 10.853 3.701 10.853 1.823 0 4.391-1.81 7.144-6.39 1.535-2.552 3.062-5.109 4.582-7.67.834.772 1.771 1.603 2.706 2.49 2.175 2.063 2.889 4.024 2.415 5.883-.362 1.421-1.727 2.887-4.155 1.463-.708-.416-1.01-.737-1.722-1.205-.382-.252-.966-.327-1.316-.063-.91.685-1.43 1.556-1.727 2.635-.289 1.05.763 1.605 1.854 2.09.939.419 2.958.797 4.245.84 5.015.168 9.033-2.42 11.83-9.095.501 5.765 2.631 9.027 6.333 9.027 2.475 0 4.957-3.197 6.042-6.343.311 1.282.773 2.398 1.368 3.34 2.853 4.517 8.387 3.545 11.166-.29.86-1.186.99-1.611.99-1.611.406 3.621 3.324 4.886 4.995 4.886 1.872 0 3.804-.884 5.158-3.93.159.33.332.646.521.945 2.853 4.517 8.387 3.545 11.166-.29.132-.18.245-.343.344-.49l.082 2.379-2.559 2.346c-4.29 3.929-7.548 6.908-7.788 10.38-.305 4.424 3.284 6.07 6.003 6.285 2.883.228 5.356-1.364 6.874-3.593 1.336-1.963 2.21-6.186 2.146-10.356-.026-1.67-.068-3.794-.101-6.07a48.632 48.632 0 004.765-6.542c1.702-2.818 3.526-6.601 4.461-9.546 0 0 1.585.014 3.276-.097.541-.035.697.075.597.471-.121.48-2.138 8.252-.297 13.43 1.259 3.545 4.099 4.685 5.783 4.685 1.971 0 3.856-1.487 4.866-3.696.122.246.249.484.388.705 2.853 4.517 8.367 3.538 11.166-.291.632-.865.991-1.611.991-1.611.6 3.748 3.517 4.906 5.188 4.906 1.74 0 3.391-.713 4.731-3.882.057 1.395.145 2.536.284 2.895.084.22.579.497.939.63 1.592.59 3.215.311 3.816.19.416-.085.741-.418.785-1.28.117-2.262.045-6.062.731-8.887 1.152-4.74 2.227-6.58 2.736-7.49.286-.51.607-.594.619-.054.024 1.093.078 4.3.525 8.61.328 3.168.765 5.041 1.101 5.635.961 1.695 2.146 1.775 3.112 1.775.615 0 1.899-.17 1.784-1.248-.056-.526.042-3.776 1.178-8.447.741-3.05 1.978-5.805 2.424-6.812.164-.372.241-.08.238-.022-.094 2.1-.305 8.97.551 12.727 1.161 5.09 4.519 5.66 5.689 5.66 2.497 0 4.54-1.899 5.228-6.895.166-1.202-.08-2.13-.815-2.13z" fill="#EBEAEA" fill-opacity=".67"/><path d="M22.5 0c-6.113 0-6.876.028-9.276.135-2.396.112-4.027.49-5.462 1.046a11.035 11.035 0 00-3.986 2.595 10.978 10.978 0 00-2.595 3.987C.624 9.197.246 10.828.135 13.224.022 15.624 0 16.387 0 22.5c0 6.113.028 6.876.135 9.276.112 2.394.49 4.027 1.046 5.461a11.034 11.034 0 002.595 3.987 11.004 11.004 0 003.987 2.595c1.436.555 3.067.935 5.461 1.046 2.4.112 3.163.135 9.276.135 6.113 0 6.876-.028 9.276-.135 2.394-.113 4.027-.491 5.461-1.046a11.062 11.062 0 003.987-2.595 10.99 10.99 0 002.595-3.986c.555-1.435.935-3.068 1.046-5.462.112-2.4.135-3.163.135-9.276 0-6.113-.028-6.876-.135-9.276-.113-2.394-.491-4.029-1.046-5.462a11.045 11.045 0 00-2.595-3.986 10.964 10.964 0 00-3.986-2.595C35.802.624 34.17.246 31.775.135 29.376.022 28.613 0 22.5 0zm0 4.05c6.006 0 6.722.03 9.094.133 2.194.103 3.384.467 4.175.778 1.054.407 1.8.895 2.592 1.68.785.788 1.273 1.536 1.68 2.59.307.79.675 1.982.774 4.175.107 2.374.131 3.086.131 9.094 0 6.008-.028 6.722-.139 9.094-.114 2.194-.48 3.384-.789 4.175a7.142 7.142 0 01-1.685 2.592 7.02 7.02 0 01-2.588 1.68c-.787.307-1.997.675-4.19.774-2.39.107-3.093.131-9.111.131-6.02 0-6.724-.028-9.11-.139-2.197-.114-3.406-.48-4.193-.789a6.968 6.968 0 01-2.586-1.685 6.833 6.833 0 01-1.688-2.588c-.309-.787-.673-1.997-.787-4.19-.084-2.363-.114-3.093-.114-9.083 0-5.993.03-6.724.114-9.115.114-2.193.478-3.4.787-4.188.394-1.069.899-1.8 1.688-2.59.786-.785 1.519-1.292 2.586-1.683.787-.312 1.97-.677 4.164-.79 2.39-.084 3.094-.112 9.11-.112l.085.056zm0 6.896a11.554 11.554 0 100 23.108 11.554 11.554 0 000-23.108zM22.5 30a7.498 7.498 0 01-7.5-7.5c0-4.144 3.356-7.5 7.5-7.5s7.5 3.356 7.5 7.5-3.356 7.5-7.5 7.5zm14.711-19.51a2.702 2.702 0 01-5.4 0 2.7 2.7 0 015.4 0z" fill="#A2A0AB"/></svg>